<svg width="600" height="90" viewBox="0 0 600 90" fill="none" xmlns="http://www.w3.org/2000/svg">
    <path
        d="M161.533 79.8022H151.139V19.6166H182.848C203.636 19.6166 212.091 25.2645 212.091 38.1488C212.091 47.5032 207.511 52.2686 197.998 54.2101C207.335 56.1516 211.034 61.0935 211.034 72.2128V76.0957C211.034 77.6842 211.387 79.2727 212.444 79.9787H201.345C200.288 79.4492 199.936 77.6842 199.936 76.0957V72.3893C199.936 68.8593 199.408 66.0354 198.351 64.0939C196.237 60.0345 191.48 58.6225 182.848 58.6225H161.533V79.8022ZM192.361 48.9152C197.998 47.8562 201.345 45.2087 201.345 39.3843V38.6783C201.345 30.5595 195.532 28.618 182.848 28.618H161.533V49.6212H182.496C186.195 49.6212 189.543 49.2682 192.361 48.9152Z"
        fill="#FFFFFF" />
    <path
        d="M251.904 81.5665C244.505 81.5665 238.692 80.5075 234.111 78.566C224.775 74.3301 220.723 66.7407 220.723 56.5039C220.723 51.209 222.133 46.7966 224.599 42.7371C229.708 34.6183 239.396 29.8528 252.961 29.8528C259.479 29.8528 265.116 30.9118 269.872 33.0298C279.209 37.2657 284.318 44.8551 284.318 55.6214V59.8574H230.764C232.174 68.8587 239.22 73.4476 252.961 73.4476C263.354 73.4476 268.815 71.1532 271.81 66.3877H283.437C277.976 77.5071 267.23 81.5665 251.904 81.5665ZM230.764 51.915H273.748C272.339 42.5606 265.468 37.9717 252.961 37.9717C240.277 37.7952 232.526 42.5606 230.764 51.915Z"
        fill="#FFFFFF" />
    <path
        d="M323.954 79.8024C318.317 79.8024 314.089 79.0964 310.919 77.6844C304.577 74.6839 302.11 68.33 302.11 56.8577V40.4435H289.074V31.9716H291.717C294.007 31.9716 296.297 31.7951 297.53 31.7951C301.406 31.4421 302.11 30.5596 302.815 27.3827C303.343 24.7352 303.52 21.0288 303.52 18.2048H312.152V31.6186H333.291V40.62H312.152V55.4457C312.152 59.8582 312.504 63.0351 313.385 65.3296C315.146 69.5655 319.022 70.801 326.773 70.801H333.467V79.9788H323.954V79.8024Z"
        fill="#FFFFFF" />
    <path
        d="M370.813 81.5665C363.414 81.5665 357.601 80.5075 353.021 78.566C343.684 74.3301 339.632 66.7407 339.632 56.5039C339.632 51.209 341.042 46.7966 343.508 42.7371C348.617 34.6183 358.306 29.8528 371.87 29.8528C378.388 29.8528 384.025 30.9118 388.782 33.0298C398.118 37.2657 403.227 44.8551 403.227 55.6214V59.8574H349.674C351.083 68.8587 358.129 73.4476 371.87 73.4476C382.264 73.4476 387.725 71.1532 390.719 66.3877H402.346C397.061 77.5071 386.315 81.5665 370.813 81.5665ZM349.674 51.915H392.657C391.248 42.5606 384.378 37.9717 371.87 37.9717C359.363 37.9717 351.611 42.5606 349.674 51.915Z"
        fill="#FFFFFF" />
    <path
        d="M414.149 79.8014V31.4412H423.31L424.191 43.6195C427.89 34.9712 436.17 29.4998 447.796 29.4998C453.434 29.4998 457.838 30.5587 461.537 32.5002C468.936 36.5596 472.811 44.149 472.811 53.8563V79.6249H462.242V56.1508C462.242 52.4444 461.713 49.2674 460.48 46.62C458.19 41.1486 453.257 38.1481 444.449 38.1481C431.589 38.1481 424.543 45.3845 424.543 58.4453V79.8014H414.149Z"
        fill="#FFFFFF" />
    <path
        d="M486.903 73.8001C486.903 68.6817 489.722 66.5638 494.831 66.5638C499.939 66.5638 502.582 68.6817 502.582 73.8001C502.582 78.7421 499.939 80.86 494.831 80.86C489.194 81.0365 486.903 79.2716 486.903 73.8001Z"
        fill="#FFFFFF" />
    <path
        d="M557.897 74.1542C552.612 78.7431 544.861 81.5671 534.291 81.5671C520.55 81.5671 514.209 76.8017 514.209 68.1533C514.209 62.8584 516.499 59.152 521.079 56.681C522.664 55.7985 524.426 54.916 526.54 54.3865C530.592 53.151 536.757 52.2686 547.151 51.7391C551.379 51.5626 554.55 51.2096 557.016 50.8566C561.772 50.1506 563.534 48.7386 563.534 46.0912C563.534 44.6792 563.006 43.4437 561.949 42.2082C560.011 39.7373 555.431 37.9723 546.975 37.9723C532.706 37.9723 527.421 41.5022 526.364 49.2681H515.618C517.203 36.2073 527.421 30.2064 546.27 30.2064C564.943 30.2064 573.751 35.6778 573.751 48.5621V80.3316H565.119L564.063 67.0943C562.477 69.3888 560.539 71.8597 557.897 74.1542ZM556.311 68.1533C560.892 64.6234 563.534 60.2109 563.534 55.975V54.0335C561.949 56.1515 557.897 57.387 548.032 58.093C536.934 58.6225 531.825 59.6815 528.83 61.6229C526.54 63.0349 525.483 64.9764 525.483 67.2708C525.483 71.3303 528.654 73.9777 537.286 73.9777C545.213 73.8012 551.731 71.6833 556.311 68.1533Z"
        fill="#FFFFFF" />
    <path
        d="M586.083 16.6159C586.083 11.674 588.373 9.909 592.953 9.909C597.534 9.909 600 11.674 600 16.6159C600 21.2048 597.71 23.3228 593.13 23.3228C588.021 23.3228 586.083 21.5578 586.083 16.6159ZM587.316 31.4416H598.062V79.8019H587.316V31.4416Z"
        fill="#FFFFFF" />
    <path
        d="M63.6096 89.1801H94.2731C101.533 87.1571 108.579 84.475 115.384 81.1606V72.9154C108.481 76.88 101.266 80.1672 93.7647 82.741C84.15 86.0373 74.0538 88.1867 63.6096 89.1801Z"
        fill="#FFFFFF" />
    <path d="M115.376 89.1801V81.8651C109.302 84.8182 103.032 87.2565 96.5928 89.1801H115.376Z"
        fill="#FFFFFF" />
    <path
        d="M46.3611 85.6671C44.2651 85.7574 42.1959 85.7935 40.1803 85.7935C21.8518 85.7935 7.0641 82.5153 0.0181122 80.6098V80.8627C7.68843 83.5178 24.6345 88.4848 45.6297 89.1079C62.4866 89.6136 78.6121 87.2565 93.5782 82.118C101.15 79.5171 108.428 76.1937 115.385 72.1659V63.5594C108.607 68.1652 101.454 72.0756 93.9438 75.2635C79.29 81.4768 63.2893 84.9808 46.3611 85.6671Z"
        fill="#FFFFFF" />
    <path
        d="M46.8513 81.5397C40.7507 82.226 34.9445 82.4879 29.5753 82.4879C16.2146 82.4879 5.59213 80.8172 0.0088501 79.7154V79.9502C7.70593 82.0454 25.1068 85.9016 46.3608 85.0256C63.2087 84.3302 79.138 80.8443 93.7116 74.6671C101.311 71.4431 108.544 67.4695 115.385 62.7825V53.6613C108.597 59.134 101.328 63.8662 93.6046 67.8037C79.4234 75.0284 63.6903 79.6522 46.8513 81.5397Z"
        fill="#FFFFFF" />
    <path
        d="M87.1651 38.7155C75.508 49.6248 61.648 58.4571 45.9684 64.9683C25.7848 73.3581 7.71491 75.688 0 76.3292V76.5189C7.70599 76.4195 25.8204 75.3719 46.4411 68.4543C62.4507 63.0899 76.8102 55.2872 89.1362 45.281C99.286 37.0357 108.071 27.2553 115.376 16.075V0C108.259 14.8468 98.8044 27.8333 87.1651 38.7155Z"
        fill="#FFFFFF" />
    <path
        d="M89.5289 45.7959C77.1405 55.8563 62.7096 63.6861 46.6287 69.0776C25.9367 76.0133 7.75978 77.0699 0.0181122 77.1693V77.368C7.73303 77.8105 25.8475 78.0363 46.8606 72.5996C63.2001 68.3732 78.0681 61.609 91.0452 52.4968C100.08 46.1481 108.214 38.6434 115.385 30.055V17.2402C108.143 28.1405 99.4914 37.7042 89.5289 45.7959Z"
        fill="#FFFFFF" />
    <path
        d="M47.0654 77.3859C36.425 79.3456 26.5963 79.9597 18.4533 79.9597C10.337 79.9597 3.90644 79.3456 0.0088501 78.8489V79.0657C7.72376 80.6009 25.4814 83.2921 46.8067 80.8989C63.5655 79.0205 79.2183 74.4147 93.3281 67.2171C101.159 63.2254 108.526 58.412 115.385 52.8309V42.942C108.481 49.6249 100.927 55.4498 92.7573 60.3717C79.1023 68.5898 63.7349 74.3154 47.0654 77.3859Z"
        fill="#FFFFFF" />
    <path
        d="M91.3838 53.0291C78.3442 62.1865 63.4049 68.9867 46.9851 73.2222C31.1361 77.3132 16.9281 78.2073 7.5543 78.2073C4.48617 78.2073 1.93535 78.108 0.0088501 77.9996V78.1983C7.72376 79.1917 25.7223 80.6637 46.9762 76.7443C63.5655 73.6828 78.8615 67.9843 92.4362 59.8113C100.731 54.8173 108.392 48.8749 115.376 42.0476V31.0298C108.294 39.4376 100.276 46.7888 91.3838 53.0291Z"
        fill="#FFFFFF" />
    <path
        d="M0.0088501 83.9604C2.46157 85.4053 5.72591 87.2205 9.69486 89.1802H12.6827C7.35808 87.1121 3.05914 85.1073 0.0088501 83.5811V83.9604Z"
        fill="#FFFFFF" />
    <path
        d="M0.0088501 85.1522V85.9199C1.4448 86.8952 3.13049 87.9879 5.04807 89.18H6.26997H8.26782C4.9678 87.5183 2.18508 85.974 0.0177683 84.7007V85.1522H0.0088501Z"
        fill="#FFFFFF" />
    <path
        d="M0.0088501 82.8587C3.34455 84.5384 8.27674 86.8413 14.4754 89.1803H19.6038C11.0149 86.8774 4.24536 84.3127 0.0088501 82.5336V82.8587Z"
        fill="#FFFFFF" />
    <path
        d="M0.00891952 81.8382C4.57543 83.7708 12.2814 86.6968 22.1458 89.1803H36.1664C19.6753 87.6631 6.60004 83.816 0 81.5492V81.8382H0.00891952Z"
        fill="#FFFFFF" />
    <path
        d="M0.0088501 87.2657C0.784801 87.8618 1.6321 88.503 2.54184 89.1803H3.62103C2.28319 88.2049 1.07913 87.2928 0.0177683 86.462V87.2657H0.0088501Z"
        fill="#FFFFFF" />
</svg> 